# xmcd
#
# Track frame offsets:
#	150
#	11271
#	23402
#	34774
#	47191
#	59052
#	71960
#	82176
#	92766
#	104428
#	115307
#	125676
#	136013
#	146785
#	157563
#	167866
#	177920
#	191735
#	202776
#	213352
#	223932
#
# Disc length: 3132 seconds
# Revision: 1
# Processed by: cddbd v1.5.2PL0 Copyright (c) Steve Scherf et al.
# Submitted via: dBpowerAMP V12.0
#
DISCID=320c3a15
DTITLE=Robert Johnson - The Complete Collection, Disc 2
DYEAR=2008
DGENRE=Blues
TTITLE0=Stones in My Passway
TTITLE1=Cross Road Blues
TTITLE2=Cross Road Blues (Alt. version - Take 2)
TTITLE3=Travelling Riverside Blues
TTITLE4=When You Got a Good Friend
TTITLE5=When You Got a Good Friend (Alt. version - Take 2)
TTITLE6=Milkcow's Calf Blues
TTITLE7=Milkcow's Calf Blues (Alt. version - Take 3)
TTITLE8=Hellhound on My Trail
TTITLE9=From Four 'Til Late
TTITLE10=Honeymoon Blues
TTITLE11=Stop Breakin' Down Blues
TTITLE12=Stop Breakin' Down Blues (Alt. version - Take 2)
TTITLE13=Malted Milk
TTITLE14=Little Queen of Spades
TTITLE15=Little Queen of Spades (Alt. version - Take 1)
TTITLE16=They're Red Hot
TTITLE17=Drunken Hearted Man
TTITLE18=Drunken Hearted Man (Alt. version - Take 2)
TTITLE19=Love in Vain
TTITLE20=Love in Vain (Alt. version - Take 1)
EXTD=
EXTT0=
EXTT1=
EXTT2=
EXTT3=
EXTT4=
EXTT5=
EXTT6=
EXTT7=
EXTT8=
EXTT9=
EXTT10=
EXTT11=
EXTT12=
EXTT13=
EXTT14=
EXTT15=
EXTT16=
EXTT17=
EXTT18=
EXTT19=
EXTT20=
PLAYORDER=
